<svg width="8" height="10" viewBox="0 0 8 10" fill="none" xmlns="http://www.w3.org/2000/svg">
<path d="M3.248 0.719278L7.35514 1.52285C7.4161 1.53477 7.47101 1.56751 7.51049 1.61546C7.54997 1.66341 7.57156 1.72359 7.57157 1.78571V8.21428C7.57156 8.27639 7.54997 8.33657 7.51049 8.38452C7.47101 8.43247 7.4161 8.46521 7.35514 8.47713L3.248 9.28071C3.2092 9.2883 3.1692 9.2872 3.13087 9.27751C3.09255 9.26781 3.05684 9.24975 3.02632 9.22463C2.9958 9.1995 2.97122 9.16793 2.95434 9.13218C2.93747 9.09643 2.92871 9.05738 2.92871 9.01785V0.982135C2.92871 0.942601 2.93747 0.903558 2.95434 0.867807C2.97122 0.832057 2.9958 0.800485 3.02632 0.775358C3.05684 0.750231 3.09255 0.732171 3.13087 0.722475C3.1692 0.712779 3.2092 0.711687 3.248 0.719278ZM4.35728 4.64285C4.26256 4.64285 4.17172 4.68048 4.10474 4.74745C4.03777 4.81443 4.00014 4.90527 4.00014 4.99999C4.00014 5.09471 4.03777 5.18555 4.10474 5.25253C4.17172 5.31951 4.26256 5.35713 4.35728 5.35713C4.452 5.35713 4.54284 5.31951 4.60982 5.25253C4.6768 5.18555 4.71443 5.09471 4.71443 4.99999C4.71443 4.90527 4.6768 4.81443 4.60982 4.74745C4.54284 4.68048 4.452 4.64285 4.35728 4.64285ZM2.57157 1.60713V8.39285H0.696568C0.63184 8.39285 0.569303 8.36941 0.520522 8.32686C0.47174 8.28432 0.440014 8.22555 0.431211 8.16142L0.428711 8.12499V1.87499C0.428714 1.81026 0.452155 1.74773 0.494699 1.69895C0.537244 1.65016 0.596013 1.61844 0.660139 1.60963L0.696568 1.60713H2.57157Z" fill="#262523"/>
</svg>
