<svg width="24" height="24" viewBox="0 0 24 24" fill="none" xmlns="http://www.w3.org/2000/svg">
<path fill-rule="evenodd" clip-rule="evenodd" d="M12 13L20 8V6L12 11L4 6V8L12 13ZM4 4H20C20.5304 4 21.0391 4.21071 21.4142 4.58579C21.7893 4.96086 22 5.46957 22 6V14.2572C21.0491 13.4718 19.8296 13 18.5 13C15.4624 13 13 15.4624 13 18.5C13 19.02 13.0722 19.5232 13.207 20H4C3.46957 20 2.96086 19.7893 2.58579 19.4142C2.21071 19.0391 2 18.5304 2 18V6C2 4.89 2.89 4 4 4Z" fill="#00457E"/>
<path d="M18.5 23C17.9091 23 17.3239 22.8836 16.7779 22.6575C16.232 22.4313 15.7359 22.0998 15.318 21.682C14.9002 21.2641 14.5687 20.768 14.3425 20.2221C14.1164 19.6761 14 19.0909 14 18.5C14 17.9091 14.1164 17.3239 14.3425 16.7779C14.5687 16.232 14.9002 15.7359 15.318 15.318C15.7359 14.9002 16.232 14.5687 16.7779 14.3425C17.3239 14.1164 17.9091 14 18.5 14C19.6935 14 20.8381 14.4741 21.682 15.318C22.5259 16.1619 23 17.3065 23 18.5C23 19.6935 22.5259 20.8381 21.682 21.682C20.8381 22.5259 19.6935 23 18.5 23ZM19.396 16.604L20.293 17.5H18.75C18.0207 17.5 17.3212 17.7897 16.8055 18.3055C16.2897 18.8212 16 19.5207 16 20.25V20.5C16 20.6326 16.0527 20.7598 16.1464 20.8536C16.2402 20.9473 16.3674 21 16.5 21C16.6326 21 16.7598 20.9473 16.8536 20.8536C16.9473 20.7598 17 20.6326 17 20.5V20.25C17 19.284 17.784 18.5 18.75 18.5H20.293L19.396 19.396C19.3021 19.4899 19.2494 19.6172 19.2494 19.75C19.2494 19.8828 19.3021 20.0101 19.396 20.104C19.4899 20.1979 19.6172 20.2506 19.75 20.2506C19.8828 20.2506 20.0101 20.1979 20.104 20.104L21.856 18.351C21.9491 18.2572 22.0012 18.1303 22.0008 17.9981C22.0004 17.8659 21.9476 17.7393 21.854 17.646L20.104 15.896C20.0101 15.8021 19.8828 15.7494 19.75 15.7494C19.6172 15.7494 19.4899 15.8021 19.396 15.896C19.3021 15.9899 19.2494 16.1172 19.2494 16.25C19.2494 16.3828 19.3021 16.5101 19.396 16.604Z" fill="#00457E"/>
</svg>
