<svg width="24" height="24" viewBox="0 0 24 24" fill="none" xmlns="http://www.w3.org/2000/svg">
<path fill-rule="evenodd" clip-rule="evenodd" d="M13.5996 2.00019C13.4052 2 13.2054 2 13 2H11C7.229 2 5.343 2 4.172 3.172C3 4.343 3 6.229 3 10V14C3 17.771 3 19.657 4.172 20.828C5.343 22 7.229 22 11 22H13C16.771 22 18.657 22 19.828 20.828C21 19.657 21 17.771 21 14V10C21 9.7946 21 9.59479 20.9998 9.40039C20.2498 9.78376 19.4001 10 18.5 10C15.4624 10 13 7.53757 13 4.5C13 3.59985 13.2162 2.75021 13.5996 2.00019ZM7.46967 7.46967C7.32902 7.61032 7.25 7.80109 7.25 8C7.25 8.19891 7.32902 8.38968 7.46967 8.53033C7.61032 8.67098 7.80109 8.75 8 8.75H12C12.1989 8.75 12.3897 8.67098 12.5303 8.53033C12.671 8.38968 12.75 8.19891 12.75 8C12.75 7.80109 12.671 7.61032 12.5303 7.46967C12.3897 7.32902 12.1989 7.25 12 7.25H8C7.80109 7.25 7.61032 7.32902 7.46967 7.46967ZM7.46967 11.4697C7.32902 11.6103 7.25 11.8011 7.25 12C7.25 12.1989 7.32902 12.3897 7.46967 12.5303C7.61032 12.671 7.80109 12.75 8 12.75H16C16.1989 12.75 16.3897 12.671 16.5303 12.5303C16.671 12.3897 16.75 12.1989 16.75 12C16.75 11.8011 16.671 11.6103 16.5303 11.4697C16.3897 11.329 16.1989 11.25 16 11.25H8C7.80109 11.25 7.61032 11.329 7.46967 11.4697ZM7.46967 15.4697C7.61032 15.329 7.80109 15.25 8 15.25H16C16.1989 15.25 16.3897 15.329 16.5303 15.4697C16.671 15.6103 16.75 15.8011 16.75 16C16.75 16.1989 16.671 16.3897 16.5303 16.5303C16.3897 16.671 16.1989 16.75 16 16.75H8C7.80109 16.75 7.61032 16.671 7.46967 16.5303C7.32902 16.3897 7.25 16.1989 7.25 16C7.25 15.8011 7.32902 15.6103 7.46967 15.4697Z" fill="#00457E"/>
<path d="M18.5 9C17.9091 9 17.3239 8.8836 16.7779 8.65746C16.232 8.43131 15.7359 8.09984 15.318 7.68198C14.9002 7.26412 14.5687 6.76804 14.3425 6.22208C14.1164 5.67611 14 5.09095 14 4.5C14 3.90905 14.1164 3.32389 14.3425 2.77792C14.5687 2.23196 14.9002 1.73588 15.318 1.31802C15.7359 0.900156 16.232 0.568688 16.7779 0.342542C17.3239 0.116396 17.9091 -8.80582e-09 18.5 0C19.6935 1.77842e-08 20.8381 0.474106 21.682 1.31802C22.5259 2.16193 23 3.30653 23 4.5C23 5.69347 22.5259 6.83807 21.682 7.68198C20.8381 8.52589 19.6935 9 18.5 9ZM19.396 2.604L20.293 3.5H18.75C18.0207 3.5 17.3212 3.78973 16.8055 4.30546C16.2897 4.82118 16 5.52065 16 6.25V6.5C16 6.63261 16.0527 6.75979 16.1464 6.85355C16.2402 6.94732 16.3674 7 16.5 7C16.6326 7 16.7598 6.94732 16.8536 6.85355C16.9473 6.75979 17 6.63261 17 6.5V6.25C17 5.284 17.784 4.5 18.75 4.5H20.293L19.396 5.396C19.3021 5.48989 19.2494 5.61722 19.2494 5.75C19.2494 5.88278 19.3021 6.01011 19.396 6.104C19.4899 6.19789 19.6172 6.25063 19.75 6.25063C19.8828 6.25063 20.0101 6.19789 20.104 6.104L21.856 4.351C21.9491 4.25718 22.0012 4.13026 22.0008 3.99809C22.0004 3.86591 21.9476 3.73929 21.854 3.646L20.104 1.896C20.0101 1.80211 19.8828 1.74937 19.75 1.74937C19.6172 1.74937 19.4899 1.80211 19.396 1.896C19.3021 1.98989 19.2494 2.11722 19.2494 2.25C19.2494 2.38278 19.3021 2.51011 19.396 2.604Z" fill="#00457E"/>
</svg>
