<svg width="8" height="8" viewBox="0 0 8 8" fill="none" xmlns="http://www.w3.org/2000/svg">
<path d="M4 8C2.93913 8 1.92172 7.57857 1.17157 6.82843C0.421427 6.07828 0 5.06087 0 4C0 2.93913 0.421427 1.92172 1.17157 1.17157C1.92172 0.421427 2.93913 0 4 0C5.06087 0 6.07828 0.421427 6.82843 1.17157C7.57857 1.92172 8 2.93913 8 4C8 5.06087 7.57857 6.07828 6.82843 6.82843C6.07828 7.57857 5.06087 8 4 8ZM4.4235 3.9275C4.70062 3.8278 4.93369 3.63352 5.08165 3.37888C5.22962 3.12423 5.283 2.82555 5.2324 2.53542C5.18179 2.24529 5.03045 1.98231 4.80502 1.79279C4.57958 1.60327 4.29451 1.49936 4 1.49936C3.70549 1.49936 3.42042 1.60327 3.19498 1.79279C2.96955 1.98231 2.81821 2.24529 2.7676 2.53542C2.717 2.82555 2.77038 3.12423 2.91835 3.37888C3.06631 3.63352 3.29938 3.8278 3.5765 3.9275C2.7355 4.1305 2 4.8875 2 5.5C2 5.6975 2.0725 5.9975 2.5 5.9975H5.5C5.9275 5.9975 6 5.6975 6 5.5C6 4.888 5.265 4.13 4.4235 3.9275Z" fill="#262523"/>
</svg>
