<?xml version="1.0" encoding="utf-8"?>
<!-- Generator: Adobe Illustrator 24.1.3, SVG Export Plug-In . SVG Version: 6.00 Build 0)  -->
<svg version="1.1" id="Ebene_1" xmlns="http://www.w3.org/2000/svg" xmlns:xlink="http://www.w3.org/1999/xlink" x="0px" y="0px"
	 viewBox="0 0 636.6 108.6" style="enable-background:new 0 0 636.6 108.6;" xml:space="preserve">
<style type="text/css">
	.st0{fill:#004380;}
	.st1{fill:#FFFFFF;}
	.st2{fill:#00B5E2;}
</style>
<g>
	<polygon class="st0" points="0,0 159.3,0 159.3,108.6 0,108.6 	"/>
	<path class="st1" d="M43.4,54.3c0-20,16.2-36.2,36.2-36.2c20,0,36.2,16.2,36.2,36.2c0,20-16.2,36.2-36.2,36.2
		C59.6,90.5,43.4,74.3,43.4,54.3L43.4,54.3z M79.5,81.8c15.2,0,27.5-12.3,27.5-27.5c0-15.2-12.3-27.5-27.5-27.5
		C64.3,26.8,52,39.1,52,54.3C52,69.5,64.3,81.8,79.5,81.8L79.5,81.8z"/>
	<path class="st1" d="M122.8,34c2.9,6.1,4.5,13,4.5,20.3c0,7.3-1.6,14.1-4.5,20.3l-9.9,0c3.6-5.9,5.7-12.9,5.7-20.3
		c0-7.4-2.1-14.4-5.7-20.3L122.8,34L122.8,34z"/>
	<path class="st1" d="M46.1,34c-3.6,5.9-5.7,12.9-5.7,20.3c0,7.4,2.1,14.3,5.6,20.2l-9.8,0c-2.9-6.1-4.5-13-4.5-20.3
		c0-7.3,1.6-14.1,4.5-20.3L46.1,34L46.1,34z"/>
	<polygon class="st1" points="63.2,34 74.8,34 74.8,74.6 63.2,74.6 	"/>
	<polygon class="st1" points="96.4,74.6 86.5,54.4 96.4,34 84.8,34 74.9,54.2 84.8,74.6 	"/>
	<path class="st1" d="M28.8,54.3c0-7.2,1.5-14.1,4.2-20.3l0,0h-8.7l-9.9,20.2l9.9,20.4h8.7l0,0C30.4,68.4,28.8,61.5,28.8,54.3
		L28.8,54.3z"/>
	<path class="st1" d="M130.2,54.3c0-7.2-1.5-14.1-4.2-20.3l0,0h8.7l9.9,20.2l-9.9,20.4H126l0,0C128.7,68.4,130.2,61.5,130.2,54.3
		L130.2,54.3z"/>
</g>
<g>
	<path class="st2" d="M200.3,27.4h22.1c10.8,0,14.9,6.1,14.9,14.5c0,7.3-2.8,12-9.3,12.9V55c6.8,0.6,8.9,5,8.9,12.2v4.6
		c0,2.8,0,6.4,0.7,7.5c0.4,0.6,0.7,1.1,1.6,1.7v0.8h-15.1c-1.4-2.8-1.4-8.1-1.4-10.3v-3.6c0-6.2-1.2-7.8-4.6-7.8h-3.7v21.8h-14.1
		V27.4z M214.5,50.4h2.8c4,0,5.9-2.6,5.9-6.5c0-4.5-1.8-6.3-6-6.3h-2.7L214.5,50.4L214.5,50.4z"/>
	<path class="st2" d="M252.9,27.4h17.8L284,81.8h-15.1l-1.5-9.5h-11.3l-1.5,9.5h-15.1L252.9,27.4z M261.9,38.5h-0.1l-3.9,23.1h7.9
		L261.9,38.5z"/>
	<path class="st2" d="M285.8,27.4h14.2v54.3h-14.2V27.4z"/>
	<path class="st2" d="M306.1,27.4h14.2v42.8h17.4v11.6h-31.6V27.4z"/>
	<path class="st0" d="M362.5,43.1v-1.3c0-3.3-1.3-5.9-4-5.9c-3,0-4.4,2.4-4.4,4.8c0,10.7,23.1,5.5,23.1,25.3
		c0,11.6-6.8,16.7-19.2,16.7c-11.7,0-18.3-4-18.3-15.3v-1.9h13.7v1.3c0,4.6,1.9,6.3,4.6,6.3c3,0,4.6-2.3,4.6-5.2
		c0-10.7-22.2-5.4-22.2-24.6c0-11,5.9-17,17.8-17c12.4,0,17.6,5.1,17.6,16.7L362.5,43.1L362.5,43.1z"/>
	<path class="st0" d="M382.2,27.4h32.2V39h-18v9.3h16.9v11.1h-16.9v10.8h18.7v11.6h-32.9V27.4z"/>
	<path class="st0" d="M420.3,27.4h22.1c10.8,0,14.9,6.1,14.9,14.5c0,7.3-2.8,12-9.3,12.9V55c6.8,0.6,8.9,5,8.9,12.2v4.6
		c0,2.8,0,6.4,0.7,7.5c0.4,0.6,0.7,1.1,1.6,1.7v0.8h-15.1c-1.4-2.8-1.4-8.1-1.4-10.3v-3.6c0-6.2-1.2-7.8-4.6-7.8h-3.7v21.8h-14.2
		L420.3,27.4L420.3,27.4z M434.4,50.4h2.8c4,0,5.9-2.6,5.9-6.5c0-4.5-1.8-6.3-6-6.3h-2.7V50.4z"/>
	<path class="st0" d="M459.5,27.4h15.1l5.7,40.9h0.2l5.7-40.9h15.1l-11.7,54.3h-18.3L459.5,27.4z"/>
	<path class="st0" d="M503,27.4h14.1v54.3H503V27.4z"/>
	<path class="st0" d="M545,43.9c0-6.2-1.1-8-3.9-8c-4.3,0-4.8,4-4.8,18.6s0.5,18.6,4.8,18.6c3.4,0,4.3-3,4.3-13.3h13.7v4
		c0,15.2-8.8,18.9-18,18.9c-15.9,0-19.4-7.9-19.4-28.2c0-20.8,4.7-28.2,19.4-28.2c12.8,0,17.6,6.7,17.6,17.2V47H545V43.9z"/>
	<path class="st0" d="M564.2,27.4h32.2V39h-18v9.3h16.9v11.1h-16.9v10.8H597v11.6h-32.9V27.4z"/>
	<path class="st0" d="M623.4,43.1v-1.3c0-3.3-1.3-5.9-4-5.9c-3,0-4.4,2.4-4.4,4.8c0,10.7,23.1,5.5,23.1,25.3
		c0,11.6-6.8,16.7-19.2,16.7c-11.7,0-18.3-4-18.3-15.3v-1.9h13.7v1.3c0,4.6,1.9,6.3,4.6,6.3c3,0,4.6-2.3,4.6-5.2
		c0-10.7-22.2-5.4-22.2-24.6c0-11,5.9-17,17.8-17c12.4,0,17.6,5.1,17.6,16.7L623.4,43.1L623.4,43.1z"/>
</g>
</svg>
