<svg width="24" height="24" viewBox="0 0 24 24" fill="none" xmlns="http://www.w3.org/2000/svg">
<path d="M5.99961 3.59961C5.36309 3.59961 4.75264 3.85247 4.30255 4.30255C3.85247 4.75264 3.59961 5.36309 3.59961 5.99961V17.9996C3.59961 18.6361 3.85247 19.2466 4.30255 19.6967C4.75264 20.1468 5.36309 20.3996 5.99961 20.3996H11.0636L11.318 19.3856C11.486 18.7111 11.8345 18.0951 12.326 17.6036L13.13 16.7996H11.3996C11.2405 16.7996 11.0879 16.7364 10.9753 16.6239C10.8628 16.5114 10.7996 16.3587 10.7996 16.1996C10.7996 16.0405 10.8628 15.8879 10.9753 15.7753C11.0879 15.6628 11.2405 15.5996 11.3996 15.5996H14.3312L18.122 11.8076C18.729 11.2 19.5416 10.8421 20.3996 10.8044V5.99961C20.3996 5.36309 20.1468 4.75264 19.6967 4.30255C19.2466 3.85247 18.6361 3.59961 17.9996 3.59961H5.99961ZM8.99961 8.69961C8.99961 8.9383 8.90479 9.16722 8.73601 9.33601C8.56722 9.50479 8.3383 9.59961 8.09961 9.59961C7.86091 9.59961 7.632 9.50479 7.46321 9.33601C7.29443 9.16722 7.19961 8.9383 7.19961 8.69961C7.19961 8.46091 7.29443 8.232 7.46321 8.06321C7.632 7.89443 7.86091 7.79961 8.09961 7.79961C8.3383 7.79961 8.56722 7.89443 8.73601 8.06321C8.90479 8.232 8.99961 8.46091 8.99961 8.69961ZM8.09961 13.1996C7.86091 13.1996 7.632 13.1048 7.46321 12.936C7.29443 12.7672 7.19961 12.5383 7.19961 12.2996C7.19961 12.0609 7.29443 11.832 7.46321 11.6632C7.632 11.4944 7.86091 11.3996 8.09961 11.3996C8.3383 11.3996 8.56722 11.4944 8.73601 11.6632C8.90479 11.832 8.99961 12.0609 8.99961 12.2996C8.99961 12.5383 8.90479 12.7672 8.73601 12.936C8.56722 13.1048 8.3383 13.1996 8.09961 13.1996ZM8.99961 15.8996C8.99961 16.1383 8.90479 16.3672 8.73601 16.536C8.56722 16.7048 8.3383 16.7996 8.09961 16.7996C7.86091 16.7996 7.632 16.7048 7.46321 16.536C7.29443 16.3672 7.19961 16.1383 7.19961 15.8996C7.19961 15.6609 7.29443 15.432 7.46321 15.2632C7.632 15.0944 7.86091 14.9996 8.09961 14.9996C8.3383 14.9996 8.56722 15.0944 8.73601 15.2632C8.90479 15.432 8.99961 15.6609 8.99961 15.8996ZM11.3996 8.39961H16.1996C16.3587 8.39961 16.5114 8.46282 16.6239 8.57535C16.7364 8.68787 16.7996 8.84048 16.7996 8.99961C16.7996 9.15874 16.7364 9.31135 16.6239 9.42387C16.5114 9.5364 16.3587 9.59961 16.1996 9.59961H11.3996C11.2405 9.59961 11.0879 9.5364 10.9753 9.42387C10.8628 9.31135 10.7996 9.15874 10.7996 8.99961C10.7996 8.84048 10.8628 8.68787 10.9753 8.57535C11.0879 8.46282 11.2405 8.39961 11.3996 8.39961ZM10.7996 12.5996C10.7996 12.4405 10.8628 12.2879 10.9753 12.1753C11.0879 12.0628 11.2405 11.9996 11.3996 11.9996H16.1996C16.3587 11.9996 16.5114 12.0628 16.6239 12.1753C16.7364 12.2879 16.7996 12.4405 16.7996 12.5996C16.7996 12.7587 16.7364 12.9114 16.6239 13.0239C16.5114 13.1364 16.3587 13.1996 16.1996 13.1996H11.3996C11.2405 13.1996 11.0879 13.1364 10.9753 13.0239C10.8628 12.9114 10.7996 12.7587 10.7996 12.5996ZM13.1756 18.452L18.9716 12.656C19.1801 12.4477 19.4276 12.2825 19.6999 12.1698C19.9723 12.0571 20.2641 11.9991 20.5589 11.9993C20.8536 11.9994 21.1454 12.0575 21.4177 12.1704C21.6899 12.2833 21.9373 12.4487 22.1456 12.6572C22.3539 12.8657 22.5192 13.1132 22.6319 13.3855C22.7445 13.6579 22.8025 13.9497 22.8024 14.2445C22.8023 14.5392 22.7441 14.831 22.6312 15.1033C22.5183 15.3755 22.3529 15.6229 22.1444 15.8312L16.3484 21.626C16.0108 21.9638 15.5877 22.2035 15.1244 22.3196L13.3268 22.7684C13.1481 22.813 12.9608 22.8105 12.7833 22.7613C12.6058 22.7121 12.444 22.6178 12.3137 22.4876C12.1834 22.3575 12.089 22.1958 12.0396 22.0183C11.9903 21.8408 11.9876 21.6536 12.032 21.4748L12.482 19.6772C12.5971 19.2135 12.837 18.7902 13.1756 18.4532V18.452Z" fill="#00457E"/>
</svg>
