<svg width="24" height="24" viewBox="0 0 24 24" fill="none" xmlns="http://www.w3.org/2000/svg">
<path fill-rule="evenodd" clip-rule="evenodd" d="M21.75 3.25V9.33063C22.7115 10.31 23.2501 11.6276 23.2501 13C23.2501 14.3724 22.7115 15.69 21.75 16.6694V22C21.7501 22.1279 21.7175 22.2537 21.6552 22.3655C21.593 22.4772 21.5032 22.5712 21.3944 22.6384C21.2856 22.7057 21.1614 22.744 21.0337 22.7498C20.9059 22.7555 20.7788 22.7285 20.6644 22.6712L18 21.3381L15.3356 22.6712C15.2212 22.7285 15.0941 22.7555 14.9663 22.7498C14.8386 22.744 14.7144 22.7057 14.6056 22.6384C14.4968 22.5712 14.407 22.4772 14.3448 22.3655C14.2825 22.2537 14.2499 22.1279 14.25 22V19.75H3.75C3.35218 19.75 2.97064 19.592 2.68934 19.3107C2.40804 19.0294 2.25 18.6478 2.25 18.25V3.25C2.25 2.85218 2.40804 2.47064 2.68934 2.18934C2.97064 1.90804 3.35218 1.75 3.75 1.75H20.25C20.6478 1.75 21.0294 1.90804 21.3107 2.18934C21.592 2.47064 21.75 2.85218 21.75 3.25ZM6.75 14.5H12C12.1989 14.5 12.3897 14.421 12.5303 14.2803C12.671 14.1397 12.75 13.9489 12.75 13.75C12.75 13.5511 12.671 13.3603 12.5303 13.2197C12.3897 13.079 12.1989 13 12 13H6.75C6.55109 13 6.36032 13.079 6.21967 13.2197C6.07902 13.3603 6 13.5511 6 13.75C6 13.9489 6.07902 14.1397 6.21967 14.2803C6.36032 14.421 6.55109 14.5 6.75 14.5ZM6.75 11.5H12C12.1989 11.5 12.3897 11.421 12.5303 11.2803C12.671 11.1397 12.75 10.9489 12.75 10.75C12.75 10.5511 12.671 10.3603 12.5303 10.2197C12.3897 10.079 12.1989 10 12 10H6.75C6.55109 10 6.36032 10.079 6.21967 10.2197C6.07902 10.3603 6 10.5511 6 10.75C6 10.9489 6.07902 11.1397 6.21967 11.2803C6.36032 11.421 6.55109 11.5 6.75 11.5ZM18.3356 19.8288L20.25 20.7869V17.7428C19.5469 18.0767 18.7783 18.25 18 18.25C17.2217 18.25 16.4531 18.0767 15.75 17.7428V20.7869L17.6644 19.8288C17.7686 19.7766 17.8835 19.7495 18 19.7495C18.1165 19.7495 18.2314 19.7766 18.3356 19.8288ZM15.9166 16.118C16.5333 16.5301 17.2583 16.75 18 16.75C18.9946 16.75 19.9484 16.3549 20.6517 15.6517C21.3549 14.9484 21.75 13.9946 21.75 13C21.75 12.2583 21.5301 11.5333 21.118 10.9166C20.706 10.2999 20.1203 9.81928 19.4351 9.53545C18.7498 9.25162 17.9958 9.17736 17.2684 9.32205C16.541 9.46675 15.8728 9.8239 15.3484 10.3483C14.8239 10.8728 14.4668 11.541 14.3221 12.2684C14.1774 12.9958 14.2516 13.7498 14.5355 14.4351C14.8193 15.1203 15.2999 15.706 15.9166 16.118ZM6.75 7C6.33579 7 6 7.33579 6 7.75C6 8.16421 6.33579 8.5 6.75 8.5H11.95C12.3642 8.5 12.7 8.16421 12.7 7.75C12.7 7.33579 12.3642 7 11.95 7H6.75Z" fill="#00457E"/>
</svg>
