<?xml version="1.0" encoding="iso-8859-1"?>
<!-- Generator: Adobe Illustrator 19.0.0, SVG Export Plug-In . SVG Version: 6.00 Build 0)  -->
<svg version="1.1" id="Layer_1" xmlns="http://www.w3.org/2000/svg" xmlns:xlink="http://www.w3.org/1999/xlink" x="0px" y="0px"
	 viewBox="0 0 504 504" style="enable-background:new 0 0 504 504;" xml:space="preserve">
<g>
	<g>
		<path d="M334.656,129.936h-3.908V43.632C330.752,19.756,311.38,0,287.5,0h-4.112h-0.004h-31.312c-0.008,0-0.012,0-0.02,0
			s-0.012,0-0.02,0h-31.444c-0.012,0-0.024,0-0.036,0c-0.012,0-0.028,0-0.04,0h-0.864c-0.76,0-3.084,0.332-3.084,0.46V0.332
			c-23.624,0-43.312,19.424-43.312,43.3v86.304h-3.808c-10.852,0-19.82,8.832-19.82,19.688V275.58
			c0,28.68,24.916,54.116,39.68,66.716l31.196,26.74v12.492c0,8.268,3.936,15.336,11.812,18.248v100.288
			c0,2.176,2.24,3.936,4.416,3.936h30.748c2.176,0,4.216-1.76,4.216-3.936V399.776c7.876-2.912,11.812-9.976,11.812-18.248v-12.496
			l31.116-26.708c11.904-10.048,39.756-36.66,39.756-66.744V149.624C354.376,138.768,345.508,129.936,334.656,129.936z
			 M315.008,129.936H189V43.632c0-13.856,11.812-25.32,23.624-27.24v59.08c0,4.348,3.524,7.876,7.876,7.876s7.876-3.528,7.876-7.876
			V16.088c3.936,0.004,11.812,0.008,15.752,0.012v59.372c0,4.348,3.524,7.876,7.876,7.876c4.348,0,7.876-3.528,7.876-7.876v-59.72
			c3.936,0,11.812,0,15.752,0v59.724c0,4.348,3.528,7.876,7.876,7.876c4.348,0,7.876-3.528,7.876-7.876V16.368
			c11.812,1.852,23.624,13.352,23.624,27.264V129.936z"/>
	</g>
</g>
<g>
</g>
<g>
</g>
<g>
</g>
<g>
</g>
<g>
</g>
<g>
</g>
<g>
</g>
<g>
</g>
<g>
</g>
<g>
</g>
<g>
</g>
<g>
</g>
<g>
</g>
<g>
</g>
<g>
</g>
</svg>
